<?xml version="1.0" encoding="UTF-8" standalone="no"?>
<!-- Created with Inkscape (http://www.inkscape.org/) -->

<svg
   xmlns:dc="http://purl.org/dc/elements/1.1/"
   xmlns:cc="http://creativecommons.org/ns#"
   xmlns:rdf="http://www.w3.org/1999/02/22-rdf-syntax-ns#"
   xmlns:svg="http://www.w3.org/2000/svg"
   xmlns="http://www.w3.org/2000/svg"
   xmlns:xlink="http://www.w3.org/1999/xlink"
   xmlns:sodipodi="http://sodipodi.sourceforge.net/DTD/sodipodi-0.dtd"
   xmlns:inkscape="http://www.inkscape.org/namespaces/inkscape"
   width="24in"
   height="18in"
   viewBox="0 0 609.6 457.2"
   version="1.1"
   id="svg8"
   inkscape:version="0.92.2 5c3e80d, 2017-08-06"
   sodipodi:docname="case.svg">
  <defs
     id="defs2">
    <color-profile
       name="Adobe-RGB--1998-"
       xlink:href="/System/Library/ColorSync/Profiles/AdobeRGB1998.icc"
       id="color-profile1317" />
    <marker
       id="Arrow2Sstart"
       inkscape:isstock="true"
       inkscape:stockid="Arrow2Sstart"
       orient="auto"
       refX="0"
       refY="0"
       style="overflow:visible">
      <path
         d="M 8.72,4.03 -2.21,0.02 8.72,-4 c -1.75,2.37 -1.74,5.62 0,8.03 z"
         id="Arrow2SstartPath"
         style="fill:#000000;fill-opacity:1;stroke:none"
         transform="matrix(0.3,0,0,0.3,-0.69,0)"
         inkscape:connector-curvature="0" />
    </marker>
    <marker
       id="Arrow2Send"
       inkscape:isstock="true"
       inkscape:stockid="Arrow2Send"
       orient="auto"
       refX="0"
       refY="0"
       style="overflow:visible">
      <path
         d="M 8.72,4.03 -2.21,0.02 8.72,-4 c -1.75,2.37 -1.74,5.62 0,8.03 z"
         id="Arrow2SendPath"
         style="fill:#000000;fill-opacity:1;stroke:none"
         transform="matrix(-0.3,0,0,-0.3,0.69,0)"
         inkscape:connector-curvature="0" />
    </marker>
  </defs>
  <sodipodi:namedview
     id="base"
     pagecolor="#ffffff"
     bordercolor="#666666"
     borderopacity="1.0"
     inkscape:pageopacity="0.0"
     inkscape:pageshadow="2"
     inkscape:zoom="1.2502642"
     inkscape:cx="73.23483"
     inkscape:cy="187.17227"
     inkscape:document-units="in"
     inkscape:current-layer="layer1"
     showgrid="false"
     units="in"
     inkscape:pagecheckerboard="false"
     inkscape:measure-start="131.172,57.9877"
     inkscape:measure-end="165.565,11.9975"
     inkscape:window-width="1440"
     inkscape:window-height="855"
     inkscape:window-x="0"
     inkscape:window-y="1"
     inkscape:window-maximized="1"
     showborder="true"
     showguides="false" />
  <metadata
     id="metadata5">
    <rdf:RDF>
      <cc:Work
         rdf:about="">
        <dc:format>image/svg+xml</dc:format>
        <dc:type
           rdf:resource="http://purl.org/dc/dcmitype/StillImage" />
        <dc:title></dc:title>
      </cc:Work>
    </rdf:RDF>
  </metadata>
  <g
     inkscape:label="Layer 1"
     inkscape:groupmode="layer"
     id="layer1"
     transform="translate(0,160.19999)">
    <text
       xml:space="preserve"
       style="font-style:normal;font-weight:normal;font-size:10.58333302px;line-height:1.25;font-family:sans-serif;letter-spacing:0px;word-spacing:0px;fill:none;fill-opacity:1;stroke:none;stroke-width:0.0254;stroke-miterlimit:4;stroke-dasharray:none"
       x="-1.6535059"
       y="0.024490211"
       id="text3494"
       transform="rotate(-89.568384)"><tspan
         sodipodi:role="line"
         style="font-style:normal;font-weight:normal;font-size:3.52777767px;line-height:125%;text-align:center;letter-spacing:0;word-spacing:0;text-anchor:middle;fill:none;fill-opacity:1;stroke:none;stroke-width:0.0254;stroke-miterlimit:4;stroke-dasharray:none"
         id="tspan3492"
         x="-1.6535057"
         y="0.024490211">23.91 in</tspan></text>
    <rect
       style="fill:none;fill-opacity:1;stroke:#ff0000;stroke-width:0.0254;stroke-miterlimit:4;stroke-dasharray:none;stroke-opacity:1"
       id="rect4699"
       width="193.52261"
       height="68.554604"
       x="0.54187727"
       y="156.78355"
       ry="5.0799999"
       rx="5.0799999" />
    <rect
       style="fill:none;fill-opacity:1;stroke:#ff0000;stroke-width:0.0254;stroke-miterlimit:4;stroke-dasharray:none;stroke-opacity:1"
       id="rect4701"
       width="193.5226"
       height="68.554604"
       x="0.54187715"
       y="227.90355"
       ry="5.0799999"
       rx="5.0799999" />
    <ellipse
       style="fill:none;fill-opacity:1;stroke:#ff0000;stroke-width:0.0254;stroke-miterlimit:4;stroke-dasharray:none;stroke-opacity:1"
       id="path4741"
       cx="9.7286749"
       cy="287.27133"
       rx="1.5748636"
       ry="1.5748637" />
    <circle
       style="fill:none;fill-opacity:1;stroke:#ff0000;stroke-width:0.0254;stroke-miterlimit:4;stroke-dasharray:none;stroke-opacity:1"
       id="path4824"
       cx="9.7299185"
       cy="237.10509"
       r="1.5748538" />
    <circle
       style="fill:none;fill-opacity:1;stroke:#ff0000;stroke-width:0.0254;stroke-miterlimit:4;stroke-dasharray:none;stroke-opacity:1"
       id="path4846"
       cx="184.86966"
       cy="237.09834"
       r="1.5739143" />
    <circle
       style="fill:none;fill-opacity:1;stroke:#ff0000;stroke-width:0.0254;stroke-miterlimit:4;stroke-dasharray:none;stroke-opacity:1"
       id="path4848"
       cx="184.86244"
       cy="287.27054"
       r="1.5748575" />
    <ellipse
       style="fill:none;fill-opacity:1;stroke:#ff0000;stroke-width:0.0254;stroke-miterlimit:4;stroke-dasharray:none;stroke-opacity:1"
       id="path4926"
       cx="29.548668"
       cy="246.75035"
       rx="1.4507921"
       ry="1.450792" />
    <circle
       style="fill:none;fill-opacity:1;stroke:#ff0000;stroke-width:0.0254;stroke-miterlimit:4;stroke-dasharray:none;stroke-opacity:1"
       id="path4928"
       cx="56.396465"
       cy="246.75035"
       r="1.4503434" />
    <ellipse
       style="fill:none;fill-opacity:1;stroke:#ff0000;stroke-width:0.0254;stroke-miterlimit:4;stroke-dasharray:none;stroke-opacity:1"
       id="path4930"
       cx="83.955467"
       cy="246.75035"
       rx="1.4507774"
       ry="1.4507773" />
    <ellipse
       style="fill:none;fill-opacity:1;stroke:#ff0000;stroke-width:0.0254;stroke-miterlimit:4;stroke-dasharray:none;stroke-opacity:1"
       id="path4932"
       cx="110.80327"
       cy="246.75035"
       rx="1.4500815"
       ry="1.4500813" />
    <circle
       style="fill:none;fill-opacity:1;stroke:#ff0000;stroke-width:0.0254;stroke-miterlimit:4;stroke-dasharray:none;stroke-opacity:1"
       id="path4934"
       cx="138.36226"
       cy="246.75035"
       r="1.4497323" />
    <circle
       style="fill:none;fill-opacity:1;stroke:#ff0000;stroke-width:0.0254;stroke-miterlimit:4;stroke-dasharray:none;stroke-opacity:1"
       id="path4936"
       cx="165.21005"
       cy="246.75035"
       r="1.4481564" />
    <circle
       style="fill:none;fill-opacity:1;stroke:#ff0000;stroke-width:0.0254;stroke-miterlimit:4;stroke-dasharray:none;stroke-opacity:1"
       id="path4938"
       cx="53.107166"
       cy="274.89789"
       r="1.767285" />
    <circle
       style="fill:none;fill-opacity:1;stroke:#ff0000;stroke-width:0.0254;stroke-miterlimit:4;stroke-dasharray:none;stroke-opacity:1"
       id="path4940"
       cx="65.807167"
       cy="274.89789"
       r="1.768813" />
    <circle
       style="fill:none;fill-opacity:1;stroke:#ff0000;stroke-width:0.0254;stroke-miterlimit:4;stroke-dasharray:none;stroke-opacity:1"
       id="path4942"
       cx="78.507164"
       cy="274.89789"
       r="1.7690343" />
    <circle
       style="fill:none;fill-opacity:1;stroke:#ff0000;stroke-width:0.0254;stroke-miterlimit:4;stroke-dasharray:none;stroke-opacity:1"
       id="path4966"
       cx="116.60717"
       cy="274.89789"
       r="1.7681185" />
    <circle
       style="fill:none;fill-opacity:1;stroke:#ff0000;stroke-width:0.0254;stroke-miterlimit:4;stroke-dasharray:none;stroke-opacity:1"
       id="path4968"
       cx="129.30716"
       cy="274.89789"
       r="1.7640346" />
    <circle
       style="fill:none;fill-opacity:1;stroke:#ff0000;stroke-width:0.0254;stroke-miterlimit:4;stroke-dasharray:none;stroke-opacity:1"
       id="path4970"
       cx="142.00716"
       cy="274.89789"
       r="1.7694192" />
    <rect
       style="fill:none;fill-opacity:1;stroke:#ff0000;stroke-width:0.02406217;stroke-miterlimit:4;stroke-dasharray:none;stroke-opacity:1"
       id="rect4972"
       width="10.135858"
       height="8.8659382"
       x="65.123871"
       y="238.97304" />
    <rect
       style="fill:none;fill-opacity:1;stroke:#ff0000;stroke-width:0.02406212;stroke-miterlimit:4;stroke-dasharray:none;stroke-opacity:1"
       id="rect4974"
       width="10.135902"
       height="8.8659382"
       x="119.52165"
       y="238.97304" />
    <circle
       style="fill:none;fill-opacity:1;stroke:#ff0000;stroke-width:0.0254;stroke-miterlimit:4;stroke-dasharray:none;stroke-opacity:1"
       id="path4978"
       cx="9.7366667"
       cy="165.97835"
       r="1.5811225" />
    <ellipse
       style="fill:none;fill-opacity:1;stroke:#ff0000;stroke-width:0.0254;stroke-miterlimit:4;stroke-dasharray:none;stroke-opacity:1"
       id="path4980"
       cx="9.7427435"
       cy="216.13727"
       rx="1.5808774"
       ry="1.5808773" />
    <ellipse
       style="fill:none;fill-opacity:1;stroke:#ff0000;stroke-width:0.0254;stroke-miterlimit:4;stroke-dasharray:none;stroke-opacity:1"
       id="path4982"
       cx="184.87378"
       cy="216.13922"
       rx="1.5789256"
       ry="1.5789255" />
    <circle
       style="fill:none;fill-opacity:1;stroke:#ff0000;stroke-width:0.0254;stroke-miterlimit:4;stroke-dasharray:none;stroke-opacity:1"
       id="path4984"
       cx="184.86966"
       cy="165.9756"
       r="1.5775419" />
    <ellipse
       style="fill:none;fill-opacity:1;stroke:#ff0000;stroke-width:0.0254;stroke-miterlimit:4;stroke-dasharray:none;stroke-opacity:1"
       id="path4986"
       cx="78.268234"
       cy="166.86499"
       rx="1.577165"
       ry="1.5771649" />
    <circle
       style="fill:none;fill-opacity:1;stroke:#ff0000;stroke-width:0.0254;stroke-miterlimit:4;stroke-dasharray:none;stroke-opacity:1"
       id="path4988"
       cx="77.046669"
       cy="215.00035"
       r="1.5802164" />
    <circle
       style="fill:none;fill-opacity:1;stroke:#ff0000;stroke-width:0.0254;stroke-miterlimit:4;stroke-dasharray:none;stroke-opacity:1"
       id="path4990"
       cx="129.121"
       cy="182.10301"
       r="1.5791432" />
    <circle
       style="fill:none;fill-opacity:1;stroke:#ff0000;stroke-width:0.0254;stroke-miterlimit:4;stroke-dasharray:none;stroke-opacity:1"
       id="path4992"
       cx="129.12286"
       cy="210.04735"
       r="1.5810064" />
    <text
       xml:space="preserve"
       style="font-style:normal;font-weight:normal;font-size:10.58333302px;line-height:1.25;font-family:sans-serif;letter-spacing:0px;word-spacing:0px;fill:#000000;fill-opacity:1;stroke:none;stroke-width:0.26458332"
       x="48.196106"
       y="281.82907"
       id="text4996"><tspan
         sodipodi:role="line"
         id="tspan4994"
         x="48.196106"
         y="291.19284"
         style="stroke-width:0.26458332" /></text>
    <flowRoot
       xml:space="preserve"
       id="flowRoot5009"
       style="font-style:normal;font-weight:normal;font-size:40px;line-height:1.25;font-family:sans-serif;letter-spacing:0px;word-spacing:0px;fill:#000000;fill-opacity:1;stroke:none"
       transform="matrix(0.26458333,0,0,0.26458333,0.52916667,-160.72916)"><flowRegion
         id="flowRegion5011"><rect
           id="rect5013"
           width="43.963596"
           height="41.196655"
           x="173.39488"
           y="1644.377" /></flowRegion><flowPara
         id="flowPara5015" /></flowRoot>    <text
       xml:space="preserve"
       style="font-style:normal;font-weight:normal;font-size:10.58333302px;line-height:1.25;font-family:sans-serif;letter-spacing:0px;word-spacing:0px;fill:#000000;fill-opacity:0.49411765;stroke:#0000ff;stroke-width:0.0254;stroke-miterlimit:4;stroke-dasharray:none;stroke-opacity:1"
       x="47.727703"
       y="268.91882"
       id="text5019"><tspan
         sodipodi:role="line"
         id="tspan5017"
         x="47.727703"
         y="268.91882"
         style="fill:#000000;fill-opacity:0.49411765;stroke:#0000ff;stroke-width:0.0254;stroke-miterlimit:4;stroke-dasharray:none;stroke-opacity:1">←</tspan></text>
    <flowRoot
       xml:space="preserve"
       id="flowRoot5021"
       style="font-style:normal;font-weight:normal;font-size:40px;line-height:1.25;font-family:sans-serif;letter-spacing:0px;word-spacing:0px;fill:#000000;fill-opacity:1;stroke:none"
       transform="matrix(0.26458333,0,0,0.26458333,0.52916667,-160.72916)"><flowRegion
         id="flowRegion5023"><rect
           id="rect5025"
           width="61.180107"
           height="43.348721"
           x="232.11549"
           y="1656.6744" /></flowRegion><flowPara
         id="flowPara5027">→</flowPara></flowRoot>    <text
       xml:space="preserve"
       style="font-style:normal;font-weight:normal;font-size:10.58333302px;line-height:1.25;font-family:sans-serif;letter-spacing:0px;word-spacing:0px;fill:#000000;fill-opacity:0.49411765;stroke:#0000ff;stroke-width:0.0254;stroke-miterlimit:4;stroke-dasharray:none;stroke-opacity:1"
       x="60.796959"
       y="268.91882"
       id="text5031"><tspan
         sodipodi:role="line"
         id="tspan5029"
         x="60.796959"
         y="268.91882"
         style="fill:#000000;fill-opacity:0.49411765;stroke:#0000ff;stroke-width:0.0254;stroke-miterlimit:4;stroke-dasharray:none;stroke-opacity:1">→</tspan></text>
    <flowRoot
       xml:space="preserve"
       id="flowRoot5033"
       style="font-style:normal;font-weight:normal;font-size:40px;line-height:1.25;font-family:sans-serif;letter-spacing:0px;word-spacing:0px;fill:#000000;fill-opacity:1;stroke:none"
       transform="matrix(0.26458333,0,0,0.26458333,0.52916667,-160.72916)"><flowRegion
         id="flowRegion5035"><rect
           id="rect5037"
           width="78.08918"
           height="45.500786"
           x="287.14685"
           y="1659.7488" /></flowRegion><flowPara
         id="flowPara5039" /></flowRoot>    <g
       id="surface1"
       transform="matrix(0.01339855,0,0,0.01339855,75.407098,261.58222)"
       style="fill:#000000;fill-opacity:0.49411765;stroke:#0000ff;stroke-width:1.89572752;stroke-miterlimit:4;stroke-dasharray:none;stroke-opacity:1">
      <path
         id="path5109"
         style="fill:#000000;fill-opacity:0.49411765;fill-rule:nonzero;stroke:#0000ff;stroke-width:2.67155027;stroke-miterlimit:4;stroke-dasharray:none;stroke-opacity:1"
         d="m 562.66653,31.430311 c 0.0391,-0.401352 0.0502,-0.802718 0.0616,-1.198639 0.0114,-0.227807 0.0335,-0.450171 0.0335,-0.672549 0,-0.09219 -0.005,-0.184402 -0.005,-0.27661 0,-0.146443 -0.005,-0.292871 -0.0115,-0.433897 -0.33524,-40.900243 -29.62919,-75.199816 -68.9243,-84.523187 v -26.305024 c 0,-48.390395 -40.54666,-87.755725 -90.39051,-87.755725 -22.78478,0 -43.60847,8.24405 -59.52095,21.78707 -15.62153,-26.32129 -44.88754,-44.09481 -78.36633,-44.09481 -33.47879,0 -62.74481,17.77352 -78.36674,44.09481 -15.91248,-13.54844 -36.73617,-21.78707 -59.51538,-21.78707 -40.0885,0 -74.148358,25.46977 -85.948638,60.61003 -14.71123,-10.06099 -32.6183499,-15.99454 -51.939058,-15.99454 -49.843844,0 -90.396094,39.365328 -90.396094,87.750304 v 66.928649 c 0,10.131509 1.79909,19.861652 5.07322,28.924677 l 41.680082,222.3561 c 0.02235,0.11926 0.0447,0.24408 0.07263,0.36339 9.582132,46.45955 44.6365284,88.48792 91.05539,110.45941 v 50.59784 c 0,42.23448 35.40081,76.59372 78.908708,76.59372 h 229.80911 c 43.5079,0 78.90313,-34.35924 78.90313,-76.59372 V 391.6627 c 46.43562,-21.97149 81.49,-64.01071 91.06097,-110.46484 0.0279,-0.11926 0.0504,-0.23865 0.0726,-0.35796 L 562.42071,33.285225 c 0.0392,-0.227807 0.056,-0.455599 0.0894,-0.688821 0.0616,-0.385078 0.12287,-0.77017 0.15645,-1.166093 z M 403.42995,-128.08118 c 26.18184,0 47.48044,20.68063 47.48044,46.096161 v 23.78842 h -94.97205 v -23.782996 c 0,-25.420955 21.30417,-46.101585 47.49161,-46.101585 z m -185.37373,23.78842 c 0,-25.41553 21.30417,-46.09616 47.48603,-46.09616 26.18184,0 47.48602,20.68063 47.48602,46.09616 v 46.096161 h -47.48602 c -17.40988,0 -33.67436,4.81626 -47.48603,13.125389 z M 80.174102,-81.979595 c 0,-25.420955 21.298598,-46.101585 47.480448,-46.101585 26.18743,0 47.4916,20.68063 47.4916,46.101585 V 29.559123 c 0,25.415538 -21.30417,46.096171 -47.4916,46.096171 -26.18185,0 -47.480448,-20.680633 -47.480448,-46.096171 z m -90.401673,-1.486098 c 26.187424,0 47.491613,20.680629 47.491613,46.096167 v 66.928649 c 0,25.415538 -21.304189,46.096171 -47.491613,46.096171 -19.67829,0 -36.602065,-11.682687 -43.792854,-28.28468 l -3.693171,-19.693522 v -65.046618 c 0,-25.415538 21.304178,-46.096167 47.486025,-46.096167 z M 473.82927,273.19246 c -7.621,36.62093 -38.95988,70.90424 -78.04268,85.35303 -8.31941,3.07523 -13.81726,10.82031 -13.81726,19.46028 v 64.24934 c 0,19.27047 -16.14716,34.94501 -35.99306,34.94501 H 116.16716 c -19.8459,0 -35.998638,-15.67454 -35.998638,-34.94501 v -64.24934 c 0,-8.63997 -5.49785,-16.38505 -13.81727,-19.46028 -39.07163,-14.44337 -70.4105006,-48.7321 -78.042683,-85.35303 l -30.266124,-161.4803 c 9.878255,3.60678 20.566661,5.59727 31.729984,5.59727 27.606594,0 52.346933,-12.08946 68.946643,-31.083319 16.59413,18.993859 41.334458,31.083319 68.941048,31.083319 27.6066,0 52.34694,-12.08946 68.94107,-31.083319 16.59412,18.993859 41.33446,31.083319 68.94106,31.083319 h 137.8877 c 11.84496,0 21.45502,-9.32336 21.45502,-20.827075 0,-11.503706 -9.61006,-20.827061 -21.45502,-20.827061 h -137.8877 c -26.18186,0 -47.48603,-20.680633 -47.48603,-46.096171 0,-25.4209517 21.30417,-46.096165 47.48603,-46.096165 H 472.371 c 25.61194,0 46.54178,19.7857173 47.44132,44.441941 z m 0,0"
         inkscape:connector-curvature="0" />
    </g>
    <flowRoot
       xml:space="preserve"
       id="flowRoot5143"
       style="font-style:normal;font-weight:normal;font-size:40px;line-height:1.25;font-family:sans-serif;letter-spacing:0px;word-spacing:0px;fill:#000000;fill-opacity:1;stroke:none"
       transform="matrix(0.26458333,0,0,0.26458333,0.52916667,-160.72916)"><flowRegion
         id="flowRegion5145"><rect
           id="rect5147"
           width="43.61702"
           height="45.744682"
           x="405.74469"
           y="1649.7021" /></flowRegion><flowPara
         id="flowPara5149" /></flowRoot>    <flowRoot
       xml:space="preserve"
       id="flowRoot5162"
       style="font-style:normal;font-weight:normal;font-size:40px;line-height:1.25;font-family:sans-serif;letter-spacing:0px;word-spacing:0px;fill:#000000;fill-opacity:1;stroke:none"
       transform="matrix(0.26458333,0,0,0.26458333,0.52916667,-160.72916)"><flowRegion
         id="flowRegion5164"><rect
           id="rect5166"
           width="52.340427"
           height="44.042553"
           x="414.68085"
           y="1654.3829" /></flowRegion><flowPara
         id="flowPara5168">←←</flowPara></flowRoot>    <text
       xml:space="preserve"
       style="font-style:normal;font-weight:normal;font-size:10.58333302px;line-height:1.25;font-family:sans-serif;letter-spacing:0px;word-spacing:0px;fill:#000000;fill-opacity:0.49411765;stroke:#0000ff;stroke-width:0.0254;stroke-miterlimit:4;stroke-dasharray:none;stroke-opacity:1"
       x="110.73456"
       y="268.91"
       id="text5172"><tspan
         sodipodi:role="line"
         id="tspan5170"
         x="110.73456"
         y="268.91"
         style="fill:#000000;fill-opacity:0.49411765;stroke:#0000ff;stroke-width:0.0254;stroke-miterlimit:4;stroke-dasharray:none;stroke-opacity:1">←</tspan></text>
    <flowRoot
       xml:space="preserve"
       id="flowRoot5174"
       style="font-style:normal;font-weight:normal;font-size:40px;line-height:1.25;font-family:sans-serif;letter-spacing:0px;word-spacing:0px;fill:#000000;fill-opacity:1;stroke:none"
       transform="matrix(0.26458333,0,0,0.26458333,0.52916667,-160.72916)"><flowRegion
         id="flowRegion5176"><rect
           id="rect5178"
           width="48.297871"
           height="42.765957"
           x="472.34042"
           y="1650.9788" /></flowRegion><flowPara
         id="flowPara5180">→</flowPara></flowRoot>    <text
       xml:space="preserve"
       style="font-style:normal;font-weight:normal;font-size:10.58333302px;line-height:1.25;font-family:sans-serif;letter-spacing:0px;word-spacing:0px;fill:#000000;fill-opacity:0.49411765;stroke:#0000ff;stroke-width:0.0254;stroke-miterlimit:4;stroke-dasharray:none;stroke-opacity:1"
       x="124.28706"
       y="268.91882"
       id="text5184"><tspan
         sodipodi:role="line"
         id="tspan5182"
         x="124.28706"
         y="268.91882"
         style="fill:#000000;fill-opacity:0.49411765;stroke:#0000ff;stroke-width:0.0254;stroke-miterlimit:4;stroke-dasharray:none;stroke-opacity:1">→</tspan></text>
    <g
       id="surface1-7"
       transform="matrix(0.01914764,0,0,0.01859628,137.55819,259.01408)"
       style="fill:#000000;fill-opacity:0.49411765;stroke:#0000ff;stroke-width:1.79520392;stroke-miterlimit:4;stroke-dasharray:none;stroke-opacity:1">
      <path
         id="path5235"
         style="fill:#000000;fill-opacity:0.49411765;fill-rule:nonzero;stroke:#0000ff;stroke-width:1.79520392;stroke-miterlimit:4;stroke-dasharray:none;stroke-opacity:1"
         d="m 463.73047,160.94922 c 0.0273,-0.28906 0.0351,-0.57813 0.043,-0.86328 0.008,-0.16407 0.0234,-0.32422 0.0234,-0.48438 0,-0.0664 -0.004,-0.13281 -0.004,-0.19922 0,-0.10547 -0.004,-0.21093 -0.008,-0.3125 -0.23438,-29.45703 -20.71485,-54.16015 -48.1875,-60.874996 V 79.269531 c 0,-34.851562 -28.34766,-63.203125 -63.19532,-63.203125 -15.92968,0 -30.48828,5.9375 -41.61328,15.691406 C 299.86719,12.800781 279.40625,0 256,0 232.59375,0 212.13281,12.800781 201.21094,31.757812 190.08594,22 175.52734,16.066406 159.60156,16.066406 c -28.02734,0 -51.83984,18.34375 -60.089841,43.652344 C 89.226562,52.472656 76.707031,48.199219 63.199219,48.199219 28.351562,48.199219 0,76.550781 0,111.39844 v 48.20312 c 0,7.29688 1.257812,14.30469 3.546875,20.83203 L 32.6875,340.57812 c 0.01563,0.0859 0.03125,0.17579 0.05078,0.26172 6.699219,33.46094 31.207031,63.73047 63.660157,79.55469 v 36.44141 C 96.398438,487.25391 121.14844,512 151.56641,512 h 160.66796 c 30.41797,0 55.16407,-24.74609 55.16407,-55.16406 v -36.44141 c 32.46484,-15.82422 56.97265,-46.10156 63.66406,-79.55859 0.0195,-0.0859 0.0352,-0.17188 0.0508,-0.25782 l 32.44531,-178.29296 c 0.0274,-0.16407 0.0391,-0.32813 0.0625,-0.4961 0.043,-0.27734 0.0859,-0.55469 0.10938,-0.83984 z M 352.40234,46.066406 c 18.30469,0 33.19532,14.894532 33.19532,33.199219 V 96.398438 H 319.19922 V 79.269531 c 0,-18.308593 14.89453,-33.203125 33.20312,-33.203125 z M 222.80078,63.199219 C 222.80078,44.894531 237.69531,30 256,30 c 18.30469,0 33.19922,14.894531 33.19922,33.199219 V 96.398438 H 256 c -12.17188,0 -23.54297,3.46875 -33.19922,9.453122 z m -96.39844,16.070312 c 0,-18.308593 14.89063,-33.203125 33.19532,-33.203125 18.30859,0 33.20312,14.894532 33.20312,33.203125 v 80.332029 c 0,18.30469 -14.89453,33.19922 -33.20312,33.19922 -18.30469,0 -33.19532,-14.89453 -33.19532,-33.19922 z M 63.199219,78.199219 c 18.308593,0 33.203125,14.894531 33.203125,33.199221 v 48.20312 c 0,18.30469 -14.894532,33.19922 -33.203125,33.19922 -13.757813,0 -25.589844,-8.41406 -30.617188,-20.37109 L 30,158.24609 V 111.39844 C 30,93.09375 44.894531,78.199219 63.199219,78.199219 Z M 401.62109,335.07031 c -5.32812,26.375 -27.23828,51.06641 -54.5625,61.47266 -5.8164,2.21484 -9.66015,7.79297 -9.66015,14.01562 v 46.27344 C 337.39844,470.71094 326.10937,482 312.23437,482 H 151.56641 c -13.875,0 -25.16797,-11.28906 -25.16797,-25.16797 v -46.27344 c 0,-6.22265 -3.84375,-11.80078 -9.66016,-14.01562 C 89.421875,386.14062 67.511719,361.44531 62.175781,335.07031 L 41.015625,218.76953 c 6.90625,2.59766 14.378906,4.03125 22.183594,4.03125 19.300781,0 36.597656,-8.70703 48.203121,-22.38672 11.60157,13.67969 28.89844,22.38672 48.19922,22.38672 19.30078,0 36.59766,-8.70703 48.19922,-22.38672 11.60156,13.67969 28.89844,22.38672 48.19922,22.38672 h 96.40234 c 8.28125,0 15,-6.71484 15,-15 0,-8.28516 -6.71875,-15 -15,-15 H 256 c -18.30469,0 -33.19922,-14.89453 -33.19922,-33.19922 0,-18.30859 14.89453,-33.19922 33.19922,-33.19922 h 144.60156 c 17.90625,0 32.53906,14.25 33.16797,32.00782 z m 0,0"
         inkscape:connector-curvature="0" />
    </g>
    <flowRoot
       xml:space="preserve"
       id="flowRoot1019"
       style="font-style:normal;font-weight:normal;font-size:40px;line-height:1.25;font-family:sans-serif;letter-spacing:0px;word-spacing:0px;fill:#000000;fill-opacity:1;stroke:none"
       transform="matrix(0.26458333,0,0,0.26458333,0,-160.19999)"><flowRegion
         id="flowRegion1021"><rect
           id="rect1023"
           width="41.187386"
           height="42.486084"
           x="467.16141"
           y="1643.5845" /></flowRegion><flowPara
         id="flowPara1025">˃</flowPara></flowRoot>    <rect
       style="fill:none;fill-opacity:0.49411765;stroke:#fb0000;stroke-width:0.0254;stroke-miterlimit:4;stroke-dasharray:none;stroke-opacity:1"
       id="rect1033"
       width="5.0620637"
       height="8.8720636"
       x="173.49097"
       y="238.96997" />
  </g>
</svg>
