<?xml version="1.0" encoding="UTF-8" standalone="no"?>
<!-- Created with Inkscape (http://www.inkscape.org/) -->

<svg
   xmlns:dc="http://purl.org/dc/elements/1.1/"
   xmlns:cc="http://creativecommons.org/ns#"
   xmlns:rdf="http://www.w3.org/1999/02/22-rdf-syntax-ns#"
   xmlns:svg="http://www.w3.org/2000/svg"
   xmlns="http://www.w3.org/2000/svg"
   xmlns:xlink="http://www.w3.org/1999/xlink"
   xmlns:sodipodi="http://sodipodi.sourceforge.net/DTD/sodipodi-0.dtd"
   xmlns:inkscape="http://www.inkscape.org/namespaces/inkscape"
   width="24in"
   height="18in"
   viewBox="0 0 609.6 457.2"
   version="1.1"
   id="svg8"
   inkscape:version="0.92.2 5c3e80d, 2017-08-06"
   sodipodi:docname="case.svg">
  <defs
     id="defs2">
    <color-profile
       name="Adobe-RGB--1998-"
       xlink:href="/System/Library/ColorSync/Profiles/AdobeRGB1998.icc"
       id="color-profile3464" />
    <marker
       id="Arrow2Sstart"
       inkscape:isstock="true"
       inkscape:stockid="Arrow2Sstart"
       orient="auto"
       refX="0"
       refY="0"
       style="overflow:visible">
      <path
         d="M 8.72,4.03 -2.21,0.02 8.72,-4 c -1.75,2.37 -1.74,5.62 0,8.03 z"
         id="Arrow2SstartPath"
         style="fill:#000000;fill-opacity:1;stroke:none"
         transform="matrix(0.3,0,0,0.3,-0.69,0)"
         inkscape:connector-curvature="0" />
    </marker>
    <marker
       id="Arrow2Send"
       inkscape:isstock="true"
       inkscape:stockid="Arrow2Send"
       orient="auto"
       refX="0"
       refY="0"
       style="overflow:visible">
      <path
         d="M 8.72,4.03 -2.21,0.02 8.72,-4 c -1.75,2.37 -1.74,5.62 0,8.03 z"
         id="Arrow2SendPath"
         style="fill:#000000;fill-opacity:1;stroke:none"
         transform="matrix(-0.3,0,0,-0.3,0.69,0)"
         inkscape:connector-curvature="0" />
    </marker>
  </defs>
  <sodipodi:namedview
     id="base"
     pagecolor="#ffffff"
     bordercolor="#666666"
     borderopacity="1.0"
     inkscape:pageopacity="0.0"
     inkscape:pageshadow="2"
     inkscape:zoom="3.32"
     inkscape:cx="320.51064"
     inkscape:cy="42.862"
     inkscape:document-units="in"
     inkscape:current-layer="layer1"
     showgrid="false"
     units="in"
     inkscape:pagecheckerboard="false"
     inkscape:measure-start="131.172,57.9877"
     inkscape:measure-end="165.565,11.9975"
     inkscape:window-width="1440"
     inkscape:window-height="855"
     inkscape:window-x="0"
     inkscape:window-y="1"
     inkscape:window-maximized="1"
     showborder="true"
     showguides="false" />
  <metadata
     id="metadata5">
    <rdf:RDF>
      <cc:Work
         rdf:about="">
        <dc:format>image/svg+xml</dc:format>
        <dc:type
           rdf:resource="http://purl.org/dc/dcmitype/StillImage" />
        <dc:title></dc:title>
      </cc:Work>
    </rdf:RDF>
  </metadata>
  <g
     inkscape:label="Layer 1"
     inkscape:groupmode="layer"
     id="layer1"
     transform="translate(0,160.19999)">
    <text
       xml:space="preserve"
       style="font-style:normal;font-weight:normal;font-size:10.58333302px;line-height:1.25;font-family:sans-serif;letter-spacing:0px;word-spacing:0px;fill:none;fill-opacity:1;stroke:none;stroke-width:0.0254;stroke-miterlimit:4;stroke-dasharray:none"
       x="-2.1866438"
       y="-0.5006752"
       id="text3494"
       transform="rotate(-89.568384)"><tspan
         sodipodi:role="line"
         style="font-style:normal;font-weight:normal;font-size:3.52777767px;line-height:125%;text-align:center;letter-spacing:0;word-spacing:0;text-anchor:middle;fill:none;fill-opacity:1;stroke:none;stroke-width:0.0254;stroke-miterlimit:4;stroke-dasharray:none"
         id="tspan3492"
         x="-2.1866436"
         y="-0.5006752">23.91 in</tspan></text>
    <rect
       style="fill:none;fill-opacity:1;stroke:#ff0000;stroke-width:0.0254;stroke-miterlimit:4;stroke-dasharray:none;stroke-opacity:1"
       id="rect4699"
       width="193.52261"
       height="68.554604"
       x="0.012710616"
       y="157.31271"
       ry="5.0799999"
       rx="5.0799999" />
    <rect
       style="fill:none;fill-opacity:1;stroke:#ff0000;stroke-width:0.0254;stroke-miterlimit:4;stroke-dasharray:none;stroke-opacity:1"
       id="rect4701"
       width="193.5226"
       height="68.554604"
       x="0.012710455"
       y="228.43271"
       ry="5.0799999"
       rx="5.0799999" />
    <ellipse
       style="fill:none;fill-opacity:1;stroke:#ff0000;stroke-width:0.0254;stroke-miterlimit:4;stroke-dasharray:none;stroke-opacity:1"
       id="path4741"
       cx="9.1995087"
       cy="287.80051"
       rx="1.5748636"
       ry="1.5748637" />
    <circle
       style="fill:none;fill-opacity:1;stroke:#ff0000;stroke-width:0.0254;stroke-miterlimit:4;stroke-dasharray:none;stroke-opacity:1"
       id="path4824"
       cx="9.2007523"
       cy="237.63425"
       r="1.5748538" />
    <circle
       style="fill:none;fill-opacity:1;stroke:#ff0000;stroke-width:0.0254;stroke-miterlimit:4;stroke-dasharray:none;stroke-opacity:1"
       id="path4846"
       cx="184.3405"
       cy="237.6275"
       r="1.5739143" />
    <circle
       style="fill:none;fill-opacity:1;stroke:#ff0000;stroke-width:0.0254;stroke-miterlimit:4;stroke-dasharray:none;stroke-opacity:1"
       id="path4848"
       cx="184.33328"
       cy="287.79971"
       r="1.5748575" />
    <ellipse
       style="fill:none;fill-opacity:1;stroke:#ff0000;stroke-width:0.0254;stroke-miterlimit:4;stroke-dasharray:none;stroke-opacity:1"
       id="path4926"
       cx="29.019501"
       cy="247.27951"
       rx="1.4507921"
       ry="1.450792" />
    <circle
       style="fill:none;fill-opacity:1;stroke:#ff0000;stroke-width:0.0254;stroke-miterlimit:4;stroke-dasharray:none;stroke-opacity:1"
       id="path4928"
       cx="55.867298"
       cy="247.27951"
       r="1.4503434" />
    <ellipse
       style="fill:none;fill-opacity:1;stroke:#ff0000;stroke-width:0.0254;stroke-miterlimit:4;stroke-dasharray:none;stroke-opacity:1"
       id="path4930"
       cx="83.4263"
       cy="247.27951"
       rx="1.4507774"
       ry="1.4507773" />
    <ellipse
       style="fill:none;fill-opacity:1;stroke:#ff0000;stroke-width:0.0254;stroke-miterlimit:4;stroke-dasharray:none;stroke-opacity:1"
       id="path4932"
       cx="110.2741"
       cy="247.27951"
       rx="1.4500815"
       ry="1.4500813" />
    <circle
       style="fill:none;fill-opacity:1;stroke:#ff0000;stroke-width:0.0254;stroke-miterlimit:4;stroke-dasharray:none;stroke-opacity:1"
       id="path4934"
       cx="137.8331"
       cy="247.27951"
       r="1.4497323" />
    <circle
       style="fill:none;fill-opacity:1;stroke:#ff0000;stroke-width:0.0254;stroke-miterlimit:4;stroke-dasharray:none;stroke-opacity:1"
       id="path4936"
       cx="164.68089"
       cy="247.27951"
       r="1.4481564" />
    <circle
       style="fill:none;fill-opacity:1;stroke:#ff0000;stroke-width:0.0254;stroke-miterlimit:4;stroke-dasharray:none;stroke-opacity:1"
       id="path4938"
       cx="52.577999"
       cy="272.362"
       r="1.767285" />
    <circle
       style="fill:none;fill-opacity:1;stroke:#ff0000;stroke-width:0.0254;stroke-miterlimit:4;stroke-dasharray:none;stroke-opacity:1"
       id="path4940"
       cx="65.278"
       cy="272.362"
       r="1.768813" />
    <circle
       style="fill:none;fill-opacity:1;stroke:#ff0000;stroke-width:0.0254;stroke-miterlimit:4;stroke-dasharray:none;stroke-opacity:1"
       id="path4942"
       cx="77.977997"
       cy="272.362"
       r="1.7690343" />
    <circle
       style="fill:none;fill-opacity:1;stroke:#ff0000;stroke-width:0.0254;stroke-miterlimit:4;stroke-dasharray:none;stroke-opacity:1"
       id="path4966"
       cx="116.078"
       cy="272.362"
       r="1.7681185" />
    <circle
       style="fill:none;fill-opacity:1;stroke:#ff0000;stroke-width:0.0254;stroke-miterlimit:4;stroke-dasharray:none;stroke-opacity:1"
       id="path4968"
       cx="128.778"
       cy="272.362"
       r="1.7640346" />
    <circle
       style="fill:none;fill-opacity:1;stroke:#ff0000;stroke-width:0.0254;stroke-miterlimit:4;stroke-dasharray:none;stroke-opacity:1"
       id="path4970"
       cx="141.478"
       cy="272.362"
       r="1.7694192" />
    <rect
       style="fill:none;fill-opacity:1;stroke:#ff0000;stroke-width:0.0254;stroke-miterlimit:4;stroke-dasharray:none;stroke-opacity:1"
       id="rect4972"
       width="10.13452"
       height="9.8805199"
       x="64.595367"
       y="239.59291" />
    <rect
       style="fill:none;fill-opacity:1;stroke:#ff0000;stroke-width:0.0254;stroke-miterlimit:4;stroke-dasharray:none;stroke-opacity:1"
       id="rect4974"
       width="10.134565"
       height="9.8805656"
       x="118.99316"
       y="239.6019" />
    <circle
       style="fill:none;fill-opacity:1;stroke:#ff0000;stroke-width:0.0254;stroke-miterlimit:4;stroke-dasharray:none;stroke-opacity:1"
       id="path4978"
       cx="9.2075005"
       cy="166.50751"
       r="1.5811225" />
    <ellipse
       style="fill:none;fill-opacity:1;stroke:#ff0000;stroke-width:0.0254;stroke-miterlimit:4;stroke-dasharray:none;stroke-opacity:1"
       id="path4980"
       cx="9.2135773"
       cy="216.66643"
       rx="1.5808774"
       ry="1.5808773" />
    <ellipse
       style="fill:none;fill-opacity:1;stroke:#ff0000;stroke-width:0.0254;stroke-miterlimit:4;stroke-dasharray:none;stroke-opacity:1"
       id="path4982"
       cx="184.34462"
       cy="216.66838"
       rx="1.5789256"
       ry="1.5789255" />
    <circle
       style="fill:none;fill-opacity:1;stroke:#ff0000;stroke-width:0.0254;stroke-miterlimit:4;stroke-dasharray:none;stroke-opacity:1"
       id="path4984"
       cx="184.3405"
       cy="166.50476"
       r="1.5775419" />
    <ellipse
       style="fill:none;fill-opacity:1;stroke:#ff0000;stroke-width:0.0254;stroke-miterlimit:4;stroke-dasharray:none;stroke-opacity:1"
       id="path4986"
       cx="77.739067"
       cy="167.39415"
       rx="1.577165"
       ry="1.5771649" />
    <circle
       style="fill:none;fill-opacity:1;stroke:#ff0000;stroke-width:0.0254;stroke-miterlimit:4;stroke-dasharray:none;stroke-opacity:1"
       id="path4988"
       cx="76.517502"
       cy="215.52951"
       r="1.5802164" />
    <circle
       style="fill:none;fill-opacity:1;stroke:#ff0000;stroke-width:0.0254;stroke-miterlimit:4;stroke-dasharray:none;stroke-opacity:1"
       id="path4990"
       cx="128.59184"
       cy="182.63217"
       r="1.5791432" />
    <circle
       style="fill:none;fill-opacity:1;stroke:#ff0000;stroke-width:0.0254;stroke-miterlimit:4;stroke-dasharray:none;stroke-opacity:1"
       id="path4992"
       cx="128.5937"
       cy="210.57651"
       r="1.5810064" />
    <text
       xml:space="preserve"
       style="font-style:normal;font-weight:normal;font-size:10.58333302px;line-height:1.25;font-family:sans-serif;letter-spacing:0px;word-spacing:0px;fill:#000000;fill-opacity:1;stroke:none;stroke-width:0.26458332"
       x="47.666939"
       y="282.35825"
       id="text4996"><tspan
         sodipodi:role="line"
         id="tspan4994"
         x="47.666939"
         y="291.72202"
         style="stroke-width:0.26458332" /></text>
    <flowRoot
       xml:space="preserve"
       id="flowRoot5009"
       style="fill:black;fill-opacity:1;stroke:none;font-family:sans-serif;font-style:normal;font-weight:normal;font-size:40px;line-height:1.25;letter-spacing:0px;word-spacing:0px"><flowRegion
         id="flowRegion5011"><rect
           id="rect5013"
           width="43.963596"
           height="41.196655"
           x="173.39488"
           y="1644.377" /></flowRegion><flowPara
         id="flowPara5015"></flowPara></flowRoot>    <text
       xml:space="preserve"
       style="font-style:normal;font-weight:normal;font-size:10.58333302px;line-height:1.25;font-family:sans-serif;letter-spacing:0px;word-spacing:0px;fill:#000000;fill-opacity:0.49411765;stroke:#0000ff;stroke-width:0.0254;stroke-opacity:1;stroke-miterlimit:4;stroke-dasharray:none"
       x="46.609482"
       y="281.80933"
       id="text5019"><tspan
         sodipodi:role="line"
         id="tspan5017"
         x="46.609482"
         y="281.80933"
         style="stroke-width:0.0254;stroke:#0000ff;stroke-opacity:1;stroke-miterlimit:4;stroke-dasharray:none;fill:#000000;fill-opacity:0.49411765">←</tspan></text>
    <flowRoot
       xml:space="preserve"
       id="flowRoot5021"
       style="font-style:normal;font-weight:normal;font-size:40px;line-height:1.25;font-family:sans-serif;letter-spacing:0px;word-spacing:0px;fill:#000000;fill-opacity:1;stroke:none"
       transform="matrix(0.26458333,0,0,0.26458333,0,-160.19999)"><flowRegion
         id="flowRegion5023"><rect
           id="rect5025"
           width="61.180107"
           height="43.348721"
           x="232.11549"
           y="1656.6744" /></flowRegion><flowPara
         id="flowPara5027">→</flowPara></flowRoot>    <text
       xml:space="preserve"
       style="font-style:normal;font-weight:normal;font-size:10.58333302px;line-height:1.25;font-family:sans-serif;letter-spacing:0px;word-spacing:0px;fill:#000000;fill-opacity:0.49411765;stroke:#0000ff;stroke-width:0.0254;stroke-opacity:1;stroke-miterlimit:4;stroke-dasharray:none"
       x="60.464142"
       y="281.80933"
       id="text5031"><tspan
         sodipodi:role="line"
         id="tspan5029"
         x="60.464142"
         y="281.80933"
         style="stroke-width:0.0254;stroke:#0000ff;stroke-opacity:1;stroke-miterlimit:4;stroke-dasharray:none;fill:#000000;fill-opacity:0.49411765">→</tspan></text>
    <flowRoot
       xml:space="preserve"
       id="flowRoot5033"
       style="font-style:normal;font-weight:normal;font-size:40px;line-height:1.25;font-family:sans-serif;letter-spacing:0px;word-spacing:0px;fill:#000000;fill-opacity:1;stroke:none"
       transform="matrix(0.26458333,0,0,0.26458333,0,-160.19999)"><flowRegion
         id="flowRegion5035"><rect
           id="rect5037"
           width="78.08918"
           height="45.500786"
           x="287.14685"
           y="1659.7488" /></flowRegion><flowPara
         id="flowPara5039" /></flowRoot>    <g
       id="surface1"
       transform="matrix(0.01339855,0,0,0.01339855,74.730668,276.67795)"
       style="fill:#000000;fill-opacity:0.49411765;stroke-width:1.89572752;stroke-miterlimit:4;stroke-dasharray:none;stroke:#0000ff;stroke-opacity:1">
      <path
         id="path5109"
         style="fill:#000000;fill-opacity:0.49411765;fill-rule:nonzero;stroke:#0000ff;stroke-width:1.89572752;stroke-miterlimit:4;stroke-dasharray:none;stroke-opacity:1"
         d="m 463.73047,160.94922 c 0.0273,-0.28906 0.0351,-0.57813 0.043,-0.86328 0.008,-0.16407 0.0234,-0.32422 0.0234,-0.48438 0,-0.0664 -0.004,-0.13281 -0.004,-0.19922 0,-0.10547 -0.004,-0.21093 -0.008,-0.3125 -0.23438,-29.45703 -20.71485,-54.16015 -48.1875,-60.874996 V 79.269531 c 0,-34.851562 -28.34766,-63.203125 -63.19532,-63.203125 -15.92968,0 -30.48828,5.9375 -41.61328,15.691406 C 299.86719,12.800781 279.40625,0 256,0 232.59375,0 212.13281,12.800781 201.21094,31.757812 190.08594,22 175.52734,16.066406 159.60156,16.066406 c -28.02734,0 -51.83984,18.34375 -60.089841,43.652344 C 89.226562,52.472656 76.707031,48.199219 63.199219,48.199219 28.351562,48.199219 0,76.550781 0,111.39844 v 48.20312 c 0,7.29688 1.257812,14.30469 3.546875,20.83203 L 32.6875,340.57812 c 0.01563,0.0859 0.03125,0.17579 0.05078,0.26172 6.699219,33.46094 31.207031,63.73047 63.660157,79.55469 v 36.44141 C 96.398438,487.25391 121.14844,512 151.56641,512 h 160.66796 c 30.41797,0 55.16407,-24.74609 55.16407,-55.16406 v -36.44141 c 32.46484,-15.82422 56.97265,-46.10156 63.66406,-79.55859 0.0195,-0.0859 0.0352,-0.17188 0.0508,-0.25782 l 32.44531,-178.29296 c 0.0274,-0.16407 0.0391,-0.32813 0.0625,-0.4961 0.043,-0.27734 0.0859,-0.55469 0.10938,-0.83984 z M 352.40234,46.066406 c 18.30469,0 33.19532,14.894532 33.19532,33.199219 V 96.398438 H 319.19922 V 79.269531 c 0,-18.308593 14.89453,-33.203125 33.20312,-33.203125 z M 222.80078,63.199219 C 222.80078,44.894531 237.69531,30 256,30 c 18.30469,0 33.19922,14.894531 33.19922,33.199219 V 96.398438 H 256 c -12.17188,0 -23.54297,3.46875 -33.19922,9.453122 z m -96.39844,16.070312 c 0,-18.308593 14.89063,-33.203125 33.19532,-33.203125 18.30859,0 33.20312,14.894532 33.20312,33.203125 v 80.332029 c 0,18.30469 -14.89453,33.19922 -33.20312,33.19922 -18.30469,0 -33.19532,-14.89453 -33.19532,-33.19922 z M 63.199219,78.199219 c 18.308593,0 33.203125,14.894531 33.203125,33.199221 v 48.20312 c 0,18.30469 -14.894532,33.19922 -33.203125,33.19922 -13.757813,0 -25.589844,-8.41406 -30.617188,-20.37109 L 30,158.24609 V 111.39844 C 30,93.09375 44.894531,78.199219 63.199219,78.199219 Z M 401.62109,335.07031 c -5.32812,26.375 -27.23828,51.06641 -54.5625,61.47266 -5.8164,2.21484 -9.66015,7.79297 -9.66015,14.01562 v 46.27344 C 337.39844,470.71094 326.10937,482 312.23437,482 H 151.56641 c -13.875,0 -25.16797,-11.28906 -25.16797,-25.16797 v -46.27344 c 0,-6.22265 -3.84375,-11.80078 -9.66016,-14.01562 C 89.421875,386.14062 67.511719,361.44531 62.175781,335.07031 L 41.015625,218.76953 c 6.90625,2.59766 14.378906,4.03125 22.183594,4.03125 19.300781,0 36.597656,-8.70703 48.203121,-22.38672 11.60157,13.67969 28.89844,22.38672 48.19922,22.38672 19.30078,0 36.59766,-8.70703 48.19922,-22.38672 11.60156,13.67969 28.89844,22.38672 48.19922,22.38672 h 96.40234 c 8.28125,0 15,-6.71484 15,-15 0,-8.28516 -6.71875,-15 -15,-15 H 256 c -18.30469,0 -33.19922,-14.89453 -33.19922,-33.19922 0,-18.30859 14.89453,-33.19922 33.19922,-33.19922 h 144.60156 c 17.90625,0 32.53906,14.25 33.16797,32.00782 z m 0,0"
         inkscape:connector-curvature="0" />
    </g>
    <flowRoot
       xml:space="preserve"
       id="flowRoot5143"
       style="font-style:normal;font-weight:normal;font-size:40px;line-height:1.25;font-family:sans-serif;letter-spacing:0px;word-spacing:0px;fill:#000000;fill-opacity:1;stroke:none"
       transform="matrix(0.26458333,0,0,0.26458333,0,-160.19999)"><flowRegion
         id="flowRegion5145"><rect
           id="rect5147"
           width="43.61702"
           height="45.744682"
           x="405.74469"
           y="1649.7021" /></flowRegion><flowPara
         id="flowPara5149" /></flowRoot>    <flowRoot
       xml:space="preserve"
       id="flowRoot5162"
       style="font-style:normal;font-weight:normal;font-size:40px;line-height:1.25;font-family:sans-serif;letter-spacing:0px;word-spacing:0px;fill:#000000;fill-opacity:1;stroke:none"
       transform="matrix(0.26458333,0,0,0.26458333,0,-160.19999)"><flowRegion
         id="flowRegion5164"><rect
           id="rect5166"
           width="52.340427"
           height="44.042553"
           x="414.68085"
           y="1654.3829" /></flowRegion><flowPara
         id="flowPara5168">←←</flowPara></flowRoot>    <text
       xml:space="preserve"
       style="font-style:normal;font-weight:normal;font-size:10.58333302px;line-height:1.25;font-family:sans-serif;letter-spacing:0px;word-spacing:0px;fill:#000000;fill-opacity:0.49411765;stroke:#0000ff;stroke-width:0.0254;stroke-opacity:1;stroke-miterlimit:4;stroke-dasharray:none"
       x="110.84354"
       y="281.80933"
       id="text5172"><tspan
         sodipodi:role="line"
         id="tspan5170"
         x="110.84354"
         y="281.80933"
         style="stroke-width:0.0254;stroke:#0000ff;stroke-opacity:1;stroke-miterlimit:4;stroke-dasharray:none;fill:#000000;fill-opacity:0.49411765">←</tspan></text>
    <flowRoot
       xml:space="preserve"
       id="flowRoot5174"
       style="font-style:normal;font-weight:normal;font-size:40px;line-height:1.25;font-family:sans-serif;letter-spacing:0px;word-spacing:0px;fill:#000000;fill-opacity:1;stroke:none"
       transform="matrix(0.26458333,0,0,0.26458333,0,-160.19999)"><flowRegion
         id="flowRegion5176"><rect
           id="rect5178"
           width="48.297871"
           height="42.765957"
           x="472.34042"
           y="1650.9788" /></flowRegion><flowPara
         id="flowPara5180">→</flowPara></flowRoot>    <text
       xml:space="preserve"
       style="font-style:normal;font-weight:normal;font-size:10.58333302px;line-height:1.25;font-family:sans-serif;letter-spacing:0px;word-spacing:0px;fill:#000000;fill-opacity:0.49411765;stroke:#0000ff;stroke-width:0.0254;stroke-opacity:1;stroke-miterlimit:4;stroke-dasharray:none"
       x="124.29787"
       y="281.80933"
       id="text5184"><tspan
         sodipodi:role="line"
         id="tspan5182"
         x="124.29787"
         y="281.80933"
         style="stroke-width:0.0254;stroke:#0000ff;stroke-opacity:1;stroke-miterlimit:4;stroke-dasharray:none;fill:#000000;fill-opacity:0.49411765">→</tspan></text>
    <g
       id="surface1-7"
       transform="matrix(0.01414881,0,0,0.01414881,137.98688,276.29382)"
       style="fill:#000000;fill-opacity:0.49411765;stroke-width:1.79520398;stroke-miterlimit:4;stroke-dasharray:none;stroke:#0000ff;stroke-opacity:1">
      <path
         id="path5235"
         style="fill:#000000;fill-opacity:0.49411765;fill-rule:nonzero;stroke:#0000ff;stroke-width:1.79520398;stroke-miterlimit:4;stroke-dasharray:none;stroke-opacity:1"
         d="m 463.73047,160.94922 c 0.0273,-0.28906 0.0351,-0.57813 0.043,-0.86328 0.008,-0.16407 0.0234,-0.32422 0.0234,-0.48438 0,-0.0664 -0.004,-0.13281 -0.004,-0.19922 0,-0.10547 -0.004,-0.21093 -0.008,-0.3125 -0.23438,-29.45703 -20.71485,-54.16015 -48.1875,-60.874996 V 79.269531 c 0,-34.851562 -28.34766,-63.203125 -63.19532,-63.203125 -15.92968,0 -30.48828,5.9375 -41.61328,15.691406 C 299.86719,12.800781 279.40625,0 256,0 232.59375,0 212.13281,12.800781 201.21094,31.757812 190.08594,22 175.52734,16.066406 159.60156,16.066406 c -28.02734,0 -51.83984,18.34375 -60.089841,43.652344 C 89.226562,52.472656 76.707031,48.199219 63.199219,48.199219 28.351562,48.199219 0,76.550781 0,111.39844 v 48.20312 c 0,7.29688 1.257812,14.30469 3.546875,20.83203 L 32.6875,340.57812 c 0.01563,0.0859 0.03125,0.17579 0.05078,0.26172 6.699219,33.46094 31.207031,63.73047 63.660157,79.55469 v 36.44141 C 96.398438,487.25391 121.14844,512 151.56641,512 h 160.66796 c 30.41797,0 55.16407,-24.74609 55.16407,-55.16406 v -36.44141 c 32.46484,-15.82422 56.97265,-46.10156 63.66406,-79.55859 0.0195,-0.0859 0.0352,-0.17188 0.0508,-0.25782 l 32.44531,-178.29296 c 0.0274,-0.16407 0.0391,-0.32813 0.0625,-0.4961 0.043,-0.27734 0.0859,-0.55469 0.10938,-0.83984 z M 352.40234,46.066406 c 18.30469,0 33.19532,14.894532 33.19532,33.199219 V 96.398438 H 319.19922 V 79.269531 c 0,-18.308593 14.89453,-33.203125 33.20312,-33.203125 z M 222.80078,63.199219 C 222.80078,44.894531 237.69531,30 256,30 c 18.30469,0 33.19922,14.894531 33.19922,33.199219 V 96.398438 H 256 c -12.17188,0 -23.54297,3.46875 -33.19922,9.453122 z m -96.39844,16.070312 c 0,-18.308593 14.89063,-33.203125 33.19532,-33.203125 18.30859,0 33.20312,14.894532 33.20312,33.203125 v 80.332029 c 0,18.30469 -14.89453,33.19922 -33.20312,33.19922 -18.30469,0 -33.19532,-14.89453 -33.19532,-33.19922 z M 63.199219,78.199219 c 18.308593,0 33.203125,14.894531 33.203125,33.199221 v 48.20312 c 0,18.30469 -14.894532,33.19922 -33.203125,33.19922 -13.757813,0 -25.589844,-8.41406 -30.617188,-20.37109 L 30,158.24609 V 111.39844 C 30,93.09375 44.894531,78.199219 63.199219,78.199219 Z M 401.62109,335.07031 c -5.32812,26.375 -27.23828,51.06641 -54.5625,61.47266 -5.8164,2.21484 -9.66015,7.79297 -9.66015,14.01562 v 46.27344 C 337.39844,470.71094 326.10937,482 312.23437,482 H 151.56641 c -13.875,0 -25.16797,-11.28906 -25.16797,-25.16797 v -46.27344 c 0,-6.22265 -3.84375,-11.80078 -9.66016,-14.01562 C 89.421875,386.14062 67.511719,361.44531 62.175781,335.07031 L 41.015625,218.76953 c 6.90625,2.59766 14.378906,4.03125 22.183594,4.03125 19.300781,0 36.597656,-8.70703 48.203121,-22.38672 11.60157,13.67969 28.89844,22.38672 48.19922,22.38672 19.30078,0 36.59766,-8.70703 48.19922,-22.38672 11.60156,13.67969 28.89844,22.38672 48.19922,22.38672 h 96.40234 c 8.28125,0 15,-6.71484 15,-15 0,-8.28516 -6.71875,-15 -15,-15 H 256 c -18.30469,0 -33.19922,-14.89453 -33.19922,-33.19922 0,-18.30859 14.89453,-33.19922 33.19922,-33.19922 h 144.60156 c 17.90625,0 32.53906,14.25 33.16797,32.00782 z m 0,0"
         inkscape:connector-curvature="0" />
    </g>
  </g>
</svg>
